<svg xmlns:rdf="http://www.w3.org/1999/02/22-rdf-syntax-ns#" xmlns="http://www.w3.org/2000/svg" height="160" width="419" version="1.1" xmlns:cc="http://creativecommons.org/ns#" xmlns:xlink="http://www.w3.org/1999/xlink" viewBox="0 0 418.83932 160.08239" xmlns:dc="http://purl.org/dc/elements/1.1/">
 <defs>
  <linearGradient id="h" x1="341" gradientUnits="userSpaceOnUse" x2="410" gradientTransform="matrix(1.01 0 0 .917 -271 -302)" y1="508" y2="584">
   <stop stop-color="#00ff66" offset="0"/>
   <stop stop-color="#0000ff" offset="1"/>
  </linearGradient>
  <linearGradient id="g" x1="393" gradientUnits="userSpaceOnUse" x2="490" gradientTransform="matrix(1.01 0 0 .917 -271 -302)" y1="470" y2="553">
   <stop stop-color="#ffffff" offset="0"/>
   <stop stop-color="#0000ff" offset="1"/>
  </linearGradient>
  <linearGradient id="i" x1="322" gradientUnits="userSpaceOnUse" x2="353" gradientTransform="matrix(1.01 0 0 .917 -271 -302)" y1="487" y2="520">
   <stop stop-color="#ffff00" offset="0"/>
   <stop stop-color="#33ffff" offset="1"/>
  </linearGradient>
  <linearGradient id="c" x1="440" gradientUnits="userSpaceOnUse" x2="483" gradientTransform="matrix(1.01 0 0 .917 -271 -302)" y1="434" y2="474">
   <stop stop-color="#0000ff" offset="0"/>
   <stop stop-color="#ffffff" offset="1"/>
  </linearGradient>
  <linearGradient id="b" y2="112" gradientUnits="userSpaceOnUse" x2="67.4" gradientTransform="matrix(1.32 0 0 1.2 -.321 -1.29)" y1="65.7" x1="20.7">
   <stop stop-color="#ff0000" offset="0"/>
   <stop stop-color="#ffff00" offset="1"/>
  </linearGradient>
  <linearGradient id="a" y2="89" gradientUnits="userSpaceOnUse" x2="139" gradientTransform="matrix(1.32 0 0 1.2 -.321 -1.29)" y1="20" x1="71.1">
   <stop stop-color="#000000" offset="0"/>
   <stop stop-color="#0000ff" offset="1"/>
  </linearGradient>
 </defs>
 <flowRoot style="word-spacing:0px;letter-spacing:0px" xml:space="preserve" transform="translate(-.235 -2.41)" line-height="125%" font-size="40px" font-family="sans-serif" fill="#000000"><flowRegion><rect y="28.6" width="70" x="129" height="62.6"/></flowRegion><flowPara>beca</flowPara></flowRoot>
 <text style="word-spacing:0px;letter-spacing:0px" xml:space="preserve" transform="scale(.902 1.11)" font-size="60.1px" y="93.586693" x="174.56372" font-family="sans-serif" line-height="125%" fill="#000000"><tspan x="174.56372" y="93.586693">Maniana</tspan></text>
 <g transform="matrix(.693 0 0 .693 .307 -2.27)">
  <path d="m71.6 196c4.41-11.2 11.8-21.5 18.1-31.7 15.6 12.3 43.1 30.3 51.6 45.1-6.63 7.89-16 13.9-24 20.9-9.01 8.72-19.8-9.24-24.7-13.8-6.93-6.61-13.9-13.7-21-20.5z" fill="url(#h)"/>
  <path d="m128 190c-10.9-10.4-25.2-17.1-7.97-20.9 34.5-13.4 68.9-27.2 104-40-1.66 12.1-11.5 22.1-20.6 30.6l-55.5 46.1c-6.79-.719-7.32-3.72-15.1-11.5l-4.54-4.29z" fill="url(#g)"/>
  <path d="m47.8 176c-3.2-2.9-22.9-14.5-10.2-18.8 20.8-8.52 41.7-16.8 63-24.2-6.09 13.2-26.6 59.1-36.3 58.3-5.04-5.09-11.2-10.2-16.4-15.2z" fill="url(#i)"/>
  <path d="m1.1 125c-1.33-18 11-34.5 24.5-46.9 11.9-9.9 23.9-19.6 35.7-29.5 8.75 2.38 13.8 11.5 21.1 16.6l53.7 48.7c-4.37 7.46-17.5 7.69-25.3 12.3-27.4 10-54.2 22-81.8 31-10.4-5-27.4-25-28.1-32z" fill="url(#b)"/>
  <path d="m145 155c14.7-26.8 32.6-55.4 47.9-81.9 7.08 5.1 14.1 12.6 22.6 21.5 7.48 10.5 13.2 19.2 10.1 30-13.1 7.72-29.1 11.6-43.4 17.9-12.1 3.83-25.3 11.1-37.1 12.5z" fill="url(#c)"/>
  <path d="m68.5 45.4c12.4-12.3 31.3-28.4 46.5-40.7 6.57 2.96 10.2 7.96 15.5 11.7l59.7 53.9c-.416 6.85-21 39.3-31.4 57.3-32-24-62.1-55.9-90.5-82.6z" fill="url(#a)"/>
 </g>
</svg>
